<svg xmlns="http://www.w3.org/2000/svg" width="597.172" height="581.399" viewBox="0 0 597.172 581.399">
  <g id="Group_345" data-name="Group 345" transform="translate(-710.284 -8071.503)">
    <path id="Path_1133" data-name="Path 1133" d="M101.666,17.545c72.106-70.631,317.434,84.48,273.911,242.47s-243.1,250.24-338.966,173.138S62.175,285.122,73.205,201.8,29.56,88.176,101.666,17.545Z" transform="matrix(-0.602, -0.799, 0.799, -0.602, 939.404, 8652.902)" fill="#f9faff"/>
    <g id="Group_242" data-name="Group 242" transform="translate(742.485 8163.252)">
      <g id="Group_209" data-name="Group 209" transform="translate(16.131 0)">
        <g id="Shapes" transform="translate(0 0)">
          <g id="Group_200" data-name="Group 200" transform="translate(459.285 140.355)">
            <path id="Union_5" data-name="Union 5" d="M6.623,16.9.112,14.387a.174.174,0,0,1-.1-.1.176.176,0,0,1,.009-.142L7.446.092a.174.174,0,0,1,.327.09L6.858,16.747a.173.173,0,0,1-.078.136.178.178,0,0,1-.094.028A.194.194,0,0,1,6.623,16.9Z" transform="translate(0)" fill="#51576f" stroke="rgba(0,0,0,0)" stroke-width="1"/>
          </g>
          <circle id="Ellipse_85" data-name="Ellipse 85" cx="4.626" cy="4.626" r="4.626" transform="translate(377.426 276.269)" fill="#00043b"/>
          <circle id="Ellipse_86" data-name="Ellipse 86" cx="4.198" cy="4.198" r="4.198" transform="translate(257.342 317.017)" fill="#51576f"/>
          <g id="Group_201" data-name="Group 201" transform="translate(298.793 0)">
            <path id="Union_4" data-name="Union 4" d="M2.175,13.361a.176.176,0,0,1-.117-.137L0,.2A.176.176,0,0,1,.072.032.179.179,0,0,1,.255.019l10.28,5.313a.171.171,0,0,1,.093.13.173.173,0,0,1-.053.15l-8.225,7.71a.175.175,0,0,1-.119.048A.184.184,0,0,1,2.175,13.361Z" fill="#51576f" stroke="rgba(0,0,0,0)" stroke-width="1"/>
          </g>
          <path id="Path_722" data-name="Path 722" d="M50.794,364.663a.286.286,0,0,1-.195-.076l-9.938-9.167a.289.289,0,0,1-.045-.369l9.168-13.964a.288.288,0,0,1,.338-.113l12.252,4.455a.287.287,0,1,1-.2.54l-12.038-4.377L41.23,355.162l9.551,8.81,7.338-7.746-4.975-5.842-2.277,3.69a.287.287,0,0,1-.489-.3l2.484-4.027a.287.287,0,0,1,.223-.136.292.292,0,0,1,.241.1l5.4,6.34a.288.288,0,0,1-.01.384L51,364.573A.289.289,0,0,1,50.794,364.663Z" transform="translate(-40.569 -31.085)" fill="#00043b"/>
          <g id="Group_202" data-name="Group 202" transform="translate(123.702 294.831)">
            <path id="Path_723" data-name="Path 723" d="M71.584,474.3l8.924,12.137-8.924,5.826Z" transform="translate(-71.412 -474.131)" fill="#00043b"/>
            <path id="Path_724" data-name="Path 724" d="M71.456,492.311a.167.167,0,0,1-.082-.021.171.171,0,0,1-.09-.151V474.176a.172.172,0,0,1,.118-.164.174.174,0,0,1,.193.061L80.52,486.21a.173.173,0,0,1-.045.247l-8.924,5.826A.165.165,0,0,1,71.456,492.311Zm.172-17.609V491.82l8.505-5.552Z" transform="translate(-71.284 -474.004)" fill="#00043b"/>
          </g>
          <g id="Group_203" data-name="Group 203" transform="translate(119.176 13.413)">
            <path id="Path_725" data-name="Path 725" d="M248.749,49.517a.287.287,0,0,1-.287-.287V42.462a.287.287,0,0,1,.575,0V49.23A.287.287,0,0,1,248.749,49.517Z" transform="translate(-239.856 -42.175)" fill="#00043b"/>
            <path id="Path_726" data-name="Path 726" d="M248.749,68.517a.287.287,0,0,1-.287-.287V61.462a.287.287,0,0,1,.575,0V68.23A.287.287,0,0,1,248.749,68.517Z" transform="translate(-239.856 -50.257)" fill="#00043b"/>
            <path id="Path_727" data-name="Path 727" d="M259.134,57.949h-6.768a.287.287,0,0,1,0-.575h6.768a.287.287,0,1,1,0,.575Z" transform="translate(-241.395 -48.64)" fill="#00043b"/>
            <path id="Path_728" data-name="Path 728" d="M240.541,57.949h-6.768a.287.287,0,1,1,0-.575h6.768a.287.287,0,1,1,0,.575Z" transform="translate(-233.486 -48.64)" fill="#00043b"/>
          </g>
          <g id="Group_204" data-name="Group 204" transform="translate(377.784 181.842)">
            <path id="Path_729" data-name="Path 729" d="M523.275,234.059a.287.287,0,0,1-.287-.287V227a.287.287,0,0,1,.575,0v6.767A.287.287,0,0,1,523.275,234.059Z" transform="translate(-514.383 -226.717)" fill="#00043b"/>
            <path id="Path_730" data-name="Path 730" d="M523.275,253.059a.287.287,0,0,1-.287-.287V246a.287.287,0,0,1,.575,0v6.768A.287.287,0,0,1,523.275,253.059Z" transform="translate(-514.383 -234.799)" fill="#00043b"/>
            <path id="Path_731" data-name="Path 731" d="M533.661,242.491h-6.768a.287.287,0,1,1,0-.575h6.768a.287.287,0,0,1,0,.575Z" transform="translate(-515.922 -233.182)" fill="#00043b"/>
            <path id="Path_732" data-name="Path 732" d="M515.068,242.491H508.3a.287.287,0,1,1,0-.575h6.768a.287.287,0,0,1,0,.575Z" transform="translate(-508.013 -233.182)" fill="#00043b"/>
          </g>
        </g>
        <g id="Isabella" transform="translate(200.361 87.015)">
          <g id="Group_206" data-name="Group 206" transform="translate(0 0)">
            <path id="right_shoe" d="M477.911,518.729c-1.5-3.959-3.713-4.854-5.178-5.447a4,4,0,0,1-1.288-.688L468,509.146c-.452-.451-1.98-1.872-2.705-1.149l-.053.054-.02.074a13.513,13.513,0,0,1-7.3,8.429l-.172.147.025.252c1.3,2.5.542,9.473.1,10.606-.282.731-4.913,3.272-6.891,4.357-.862.472-1.484.814-1.71.964-.7.468-1.5,3.377-1.323,5.6.134,1.7.786,2.867,1.883,3.37a6.364,6.364,0,0,0,2.517.393c4.433,0,11.841-2.164,13.177-3.905l.243-.316c5.542-7.2,12.151-16.37,12.159-19.188Zm-12.6,18.94-.244.317c-1.483,1.93-12.2,4.621-15,3.34a2.851,2.851,0,0,1-1.452-2.187c2.4.122,5.859-.465,10.754-1.937,5.666-1.7,14.544-16.906,15.211-18.371a22.435,22.435,0,0,0,.969-3.047,9.754,9.754,0,0,1,1.8,3.1C477.307,520.144,475.639,524.262,465.316,537.669Z" transform="translate(-336.223 -251.449)" fill="#00043b"/>
            <path id="left_shoe" d="M422.947,538.936c-.124-.814-.266-1.017-.4-1.116a1.633,1.633,0,0,0-.689-.247,30.785,30.785,0,0,1,.321-9.494.287.287,0,0,0-.56-.128,31.232,31.232,0,0,0-.344,9.57,19.824,19.824,0,0,0-2.316.129c-.636.059-1.238.115-1.7.115h-.006a18.9,18.9,0,0,1-3.032-.437c-.537-.1-1.055-.2-1.531-.28a50.148,50.148,0,0,0,.606-8.936.287.287,0,0,0-.575.01,50.6,50.6,0,0,1-.6,8.843c-.209-.025-.406-.043-.587-.051l-.062,0c-1.748,0-15.088,2.468-18.377,6.341-2.36,2.78-2.07,7.065-1.837,8.778l.01.048c.188.6,6.979,1.791,15.1,1.791a57.579,57.579,0,0,0,16.1-2.005l.091-.027.056-.076C423.307,550.822,423.356,541.633,422.947,538.936Zm-.762,12.411c-12.385,3.706-29.01,1.056-30.377.486a15,15,0,0,1,.091-4.547c1.853,1.046,6,2.164,15.257,1.677,10.235-.537,14.025-1.417,15.433-1.988A19.644,19.644,0,0,1,422.185,551.347Z" transform="translate(-312.052 -259.928)" fill="#00043b"/>
            <path id="Path_733" data-name="Path 733" d="M453.677,489.743l-.2-.255s-1.724-2.241-4.43-5.776l.456-.349c2.174,2.839,3.714,4.842,4.236,5.521.283-.268.806-.763,1.487-1.407l.133-.127c1.855-1.764,4.96-4.717,7.507-7.208a53.473,53.473,0,0,0,4.416-4.546c-.5-1.105-8.221-11.173-15.045-20.075l-1.929-2.516.178-.179.2.2.218-.2v.043l.017-.012,1.776,2.316c11.5,15,14.685,19.254,15.119,20.27l0,0c.194.268.283.391-4.548,5.114-2.55,2.493-5.656,5.448-7.512,7.214l-.134.127c-1.019.963-1.681,1.59-1.714,1.623Z" transform="translate(-336.7 -228.067)" fill="#00043b"/>
            <path id="Path_734" data-name="Path 734" d="M402.866,379.645c-9.078-11.9-13.81-18.19-14.066-18.7a15.867,15.867,0,0,1-1.916-7.123c0-3.389,5.185-41.72,7.031-49.1,1.558-6.244,2.3-25.705,2.5-31.522l.069-2.376,6.03-2.052.026.372s.069.988.2,2.757l.1,1.346-.574.04-.1-1.339c-.085-1.139-.143-1.954-.175-2.392l-4.947,1.683-.057,1.978c-.247,7.474-.985,25.516-2.513,31.643-1.842,7.366-7.014,45.586-7.014,48.965a15.335,15.335,0,0,0,1.854,6.864c.136.267,2.135,3.042,14.01,18.608Z" transform="translate(-310.258 -149.778)" fill="#00043b"/>
            <path id="Path_735" data-name="Path 735" d="M424.714,415.232q-1.083,0-2.313-.1a59.8,59.8,0,0,1-10.992-2.172l-.2-.061,0-.209c0-.228-.358-22.913-.018-32.912.028-.747.025-1.927-.011-3.61-.241-12.172-1.987-46.073-3.263-70.826-.755-14.665-1.352-26.249-1.352-27.852v-7.568l.361-.132,23.144-8.8.131.155a83.769,83.769,0,0,1,5.313,7.193c2.827,4.276,6.353,10.517,7.091,15.968,1.147,8.444-1.4,14.208-3.256,18.417-.385.872-.748,1.7-1.041,2.459h0a45.94,45.94,0,0,0-2.73,11.919c-.205,1.977-1.619,31.885-2.668,54.252v.081l-.01.13c-.533,11.456-1.042,22.458-1.409,30.39-.177,3.865-.324,7-.423,9.109l-.123,2.629-.108.081C429.539,414.744,427.485,415.232,424.714,415.232Zm-12.936-2.761a58.881,58.881,0,0,0,10.669,2.089c3.727.3,6.4-.09,7.936-1.169l.11-2.355c.1-2.108.246-5.245.424-9.109.367-7.937.877-18.951,1.409-30.416l0-.1c1.667-35.573,2.516-52.848,2.674-54.366a46.527,46.527,0,0,1,2.764-12.066c.3-.775.664-1.605,1.053-2.484,1.831-4.147,4.337-9.825,3.212-18.108-.724-5.344-4.206-11.5-7-15.729a85.056,85.056,0,0,0-5.142-6.984l-22.753,8.651v7.167c0,1.589.6,13.165,1.352,27.822,1.276,24.757,3.022,58.664,3.263,70.843.036,1.695.039,2.886.011,3.643C411.441,389.266,411.743,410.144,411.778,412.471Z" transform="translate(-318.629 -146.468)" fill="#00043b"/>
            <path id="Path_736" data-name="Path 736" d="M431.042,418.38l-.573-.043c1.563-21.07,4.265-107.895,2.306-123.848a89.073,89.073,0,0,0-6.622-25.008l.525-.234a89.663,89.663,0,0,1,6.666,25.172C435.358,310.81,432.649,396.716,431.042,418.38Z" transform="translate(-326.961 -149.981)" fill="#00043b"/>
            <path id="Path_737" data-name="Path 737" d="M276.533,252.5c-.833.62-20.509.856-22.928,0-.506-.178,1.914-4.959,6.246-7.671a3.813,3.813,0,0,0,1.712.218,41.944,41.944,0,0,1,7.459-.546c-3.557.345-7.286,1.127-7.671,1.638s-.644.96-.557,1.31,1.414.4,4.8-.2a18.4,18.4,0,0,1,4.758-.431s-5.913.27-6.471,1.741,1.845,1.345,1.845,1.345a47.379,47.379,0,0,1,6.723-.816,9.668,9.668,0,0,1,3.189.644A6.094,6.094,0,0,1,276.533,252.5Z" transform="translate(-253.539 -139.442)" fill="#51576f"/>
            <path id="Path_738" data-name="Path 738" d="M282.842,248.5a10.109,10.109,0,0,1-3.382-.612l-.2-.064a8.809,8.809,0,0,0-2.9-.566,47.247,47.247,0,0,0-6.669.811c-.2.012-1.573.064-2.084-.635a1.1,1.1,0,0,1-.084-1.094,1.509,1.509,0,0,1,.66-.7c-3.265.488-3.663.14-3.756-.238a2.065,2.065,0,0,1,.607-1.553,4.685,4.685,0,0,1,2.076-.823c-.592.086-1.108.159-1.615.193a4.129,4.129,0,0,1-1.841-.24,1.39,1.39,0,0,1-.9-.79c-.134-.64.373-1.153,1.554-1.569a42.4,42.4,0,0,1,6.6-.994c.444-.047.843-.088,1.168-.125l.064.572c-.326.036-.726.078-1.173.124a42.645,42.645,0,0,0-6.468.964c-.479.168-1.268.51-1.183.911a1.212,1.212,0,0,0,.551.374,3.555,3.555,0,0,0,1.585.2c.51-.034,1.043-.111,1.66-.2a28.213,28.213,0,0,1,5.831-.346.287.287,0,0,1,.014.573c-3.908.379-7.174,1.174-7.47,1.526-.138.181-.544.714-.514,1.026.136.066.877.262,4.476-.373a18.553,18.553,0,0,1,4.844-.433.287.287,0,0,1-.023.572c-2.213.1-5.857.614-6.214,1.556-.134.353-.025.5.01.551.279.382,1.236.421,1.55.4a46.214,46.214,0,0,1,6.738-.817,9.411,9.411,0,0,1,3.077.594l.2.064a9.609,9.609,0,0,0,3.205.584,30.5,30.5,0,0,0,6.052-.865c.83-.178,1.547-.33,2.125-.414l.082.569c-.559.08-1.267.232-2.087.407A30.922,30.922,0,0,1,282.842,248.5Z" transform="translate(-257.451 -137.33)" fill="#00043b"/>
            <path id="Path_739" data-name="Path 739" d="M288.945,241.594a8.167,8.167,0,0,1-1.457-.121c-.763-.14-3.163-1.045-5.705-2-2.252-.849-4.58-1.727-5.675-2.031a48.834,48.834,0,0,0-14.357-1.026c-.294.164-.46.35-.459.514s.194.382.5.535c.63.315,7.995.535,9.438.413l.1.278-.038-.284a.282.282,0,0,1,.342.209.294.294,0,0,1-.214.351c-.015,0-.077.013-.092.014-1.144.1-8.924-.033-9.79-.466a1.267,1.267,0,0,1-.818-1.043c0-.284.135-.7.813-1.054a.273.273,0,0,1,.1-.031,49.416,49.416,0,0,1,14.628,1.037c1.119.311,3.459,1.194,5.723,2.047,2.405.907,4.893,1.845,5.606,1.976a9.4,9.4,0,0,0,2.6.037.29.29,0,0,1,.32.252.287.287,0,0,1-.251.319A11.308,11.308,0,0,1,288.945,241.594Z" transform="translate(-256.592 -135.701)" fill="#00043b"/>
            <path id="Path_740" data-name="Path 740" d="M314.665,250.9c-1.477,0-2.894-.586-3.044-1.181a11.863,11.863,0,0,1-.129-1.683l-.018-.6c-.026-.859-.033-1.686-.023-2.328.014-.565.034-.933.065-1.2a1.115,1.115,0,0,1,.148-.539c.32-.463,2.986-1.075,4.117-1.317l.12.561a18.135,18.135,0,0,0-3.771,1.092s-.022.079-.042.268c-.03.247-.049.6-.062,1.141-.01.632,0,1.45.023,2.3l.017.592a14.168,14.168,0,0,0,.111,1.56,4.078,4.078,0,0,0,3.157.7l.084.568A5.152,5.152,0,0,1,314.665,250.9Z" transform="translate(-278.17 -138.414)" fill="#00043b"/>
            <path id="Path_741" data-name="Path 741" d="M315.6,251.569l-3.615-.092L312,250.9l3.613.092Z" transform="translate(-278.397 -142.178)" fill="#00043b"/>
            <rect id="Rectangle_194" data-name="Rectangle 194" width="3.273" height="0.575" transform="translate(33.539 106.407) rotate(-5.154)" fill="#00043b"/>
            <path id="Path_742" data-name="Path 742" d="M408.8,105.9a4.325,4.325,0,0,1-2.4-.614,1.84,1.84,0,0,1-.823-1.561,29.1,29.1,0,0,0-.577-6.005,2.639,2.639,0,0,0-.617-.195c-.747-.185-1.77-.438-2-1.387l-.029-.126.074-.106c1.087-1.553,1.8-6.241,1.957-8.141a44.444,44.444,0,0,0-.342-5.849c-.06-.648-.122-1.314-.181-1.984a9.02,9.02,0,0,1,1.131-5.5l.479.318a8.612,8.612,0,0,0-1.038,5.129c.059.669.121,1.334.18,1.981a44.324,44.324,0,0,1,.342,5.949c-.107,1.287-.751,6.375-1.98,8.3.21.521.943.7,1.539.851.457.113.788.195.95.422.373.522.681,4.517.681,6.335a1.256,1.256,0,0,0,.578,1.09,4.619,4.619,0,0,0,3.55.3l.223-.08c4.478-1.614,7.757-3.243,9.747-4.843l.36.448c-3.075,2.472-8.221,4.326-9.913,4.936l-.221.08A5.17,5.17,0,0,1,408.8,105.9Z" transform="translate(-316.835 -67.115)" fill="#00043b"/>
            <path id="Path_743" data-name="Path 743" d="M421.507,140.526l-.464-.34c.009-.013,1.1-1.648,1.06-7.712a44.09,44.09,0,0,0-.646-6.466l.567-.1a44.689,44.689,0,0,1,.654,6.557C422.723,138.792,421.557,140.458,421.507,140.526Z" transform="translate(-324.788 -89.012)" fill="#00043b"/>
            <g id="Group_205" data-name="Group 205" transform="translate(36.18 49.337)">
              <path id="Union_6" data-name="Union 6" d="M49.945,74.344a.282.282,0,0,1-.137-.059c-1.234-.959-2.172-6.357-2.927-11.512-.08-.543-.139-.955-.178-1.174-.229-1.289-.194-11.025-.181-13.7l-8.167,7.521a18.2,18.2,0,0,1-3.343,2.111c-.089.037-.182.079-.288.126-1.407.629-5.144,2.3-33.8,5.8a.285.285,0,0,1-.274-.125C-.062,62.267,0,55.389,0,54.608a.288.288,0,0,1,.208-.274l27.33-7.8a35.155,35.155,0,0,0,4.284-1.845c.789-.551,10.725-12.589,13.586-16.451a9.664,9.664,0,0,1-.99-10.875,9.941,9.941,0,0,1,4.236-4.034,19.32,19.32,0,0,0,4.547-3.476c4.508-4.6,6.576-7.98,6.821-9.031a.288.288,0,0,1,.229-.218C60.966.48,77.169-.764,78.234.725c.839,1.177,3.216,3.98,3.24,4.009a.274.274,0,0,1,.067.163c.01.121.935,12.185,0,18.4-.485,3.215-1.974,7.062-3.416,10.782a60.02,60.02,0,0,0-3.354,10.386c-1.146,6.615,1.207,20.319,5.96,28.073a.29.29,0,0,1-.005.31.294.294,0,0,1-.281.125c-1.08-.159-2.109-.324-3.084-.481a39.13,39.13,0,0,0-7.822-.8,66.754,66.754,0,0,0-7.778,1.562c-1.937.456-3.766.888-4.956,1.09a18.953,18.953,0,0,1-3.148.235A30.488,30.488,0,0,1,49.945,74.344Z" fill="#51576f"/>
            </g>
            <path id="Path_746" data-name="Path 746" d="M402.325,66.976a4.677,4.677,0,0,1,3.239-3.472c2.085-.695,5.886-.128,7.644-.348,2.78-.347,8.859-2.836,16.5-.4s8.861,5.964,9.556,8.4,1.389,6.254,2.084,6.95,4.17,3.822,4.865,7.644-.7,9.034-.7,10.076,3.823,4.517,3.127,8.339-4.1,9.135-7.3,11.119a12.139,12.139,0,0,1-11.119,1.042c-3.672-1.487-3.772-.7-8.686-.7-3.127,0-6.942-2.822-6.254-6.949.348-2.085,1.39-3.127,1.738-4.864s-1.042-3.127-1.042-4.517,1.042-3.127,1.042-3.823a44.085,44.085,0,0,1,0-6.254c.347-2.085,1.389-3.475,1.389-5.907s-4.17-3.822-4.17-3.822a25.3,25.3,0,0,1-5.211-5.212c-2.085-3.127-3.823-2.432-4.865-3.127A4.3,4.3,0,0,1,402.325,66.976Z" transform="translate(-316.819 -61.698)" fill="#00043b"/>
            <path id="Path_747" data-name="Path 747" d="M398.114,211.669s15.593-14.794,22.333-24.046c-2.627,4.912-16.164,23.3-22.333,26.445C398.171,212.754,398.114,211.669,398.114,211.669Z" transform="translate(-315.035 -115.261)" fill="#00043b" stroke="#00043b" stroke-linecap="round" stroke-linejoin="round" stroke-width="1"/>
            <path id="Path_748" data-name="Path 748" d="M465.3,521.089a.287.287,0,0,1-.283-.24c-.555-3.327-4.606-7.9-4.647-7.942a.287.287,0,1,1,.429-.383c.171.192,4.2,4.741,4.785,8.231a.287.287,0,0,1-.236.33A.268.268,0,0,1,465.3,521.089Z" transform="translate(-341.483 -253.419)" fill="#00043b"/>
            <path id="Path_749" data-name="Path 749" d="M477.07,507.749a.287.287,0,0,1-.239-.128l-4.346-6.518a.288.288,0,1,1,.479-.319l4.345,6.519a.287.287,0,0,1-.08.4A.284.284,0,0,1,477.07,507.749Z" transform="translate(-346.649 -248.412)" fill="#00043b"/>
          </g>
        </g>
        <g id="Table" transform="translate(125.619 200.729)">
          <rect id="Rectangle_195" data-name="Rectangle 195" width="150.912" height="11.584" rx="1.864" fill="#00043b"/>
          <rect id="Rectangle_196" data-name="Rectangle 196" width="0.575" height="167.688" transform="translate(74.784 6.49)" fill="#00043b"/>
          <rect id="Rectangle_197" data-name="Rectangle 197" width="26.731" height="5.975" rx="0.641" transform="translate(61.706 9.134)" fill="#00043b"/>
          <rect id="Rectangle_198" data-name="Rectangle 198" width="58.145" height="10.901" rx="0.576" transform="translate(46.061 165.762)" fill="#00043b"/>
        </g>
        <g id="Laptop" transform="translate(150.883 156.579)">
          <path id="Path_750" data-name="Path 750" d="M202.182,244.807H185.817a.287.287,0,0,1-.268-.39l7.54-19.706a.287.287,0,0,1,.26-.184.291.291,0,0,1,.27.17l8.825,19.706a.287.287,0,0,1-.262.4Zm-15.947-.575h15.5l-8.36-18.668Z" transform="translate(-185.53 -200.523)" fill="#00043b"/>
          <path id="Path_751" data-name="Path 751" d="M189.373,182.92l18.975,43.717a.287.287,0,0,1-.527.229h0L188.87,183.138a.274.274,0,0,1,.5-.218Z" transform="translate(-186.942 -182.755)" fill="#00043b"/>
        </g>
      </g>
      <g id="Plant" transform="translate(419.346 258.519)">
        <g id="Group_236" data-name="Group 236" transform="translate(19.648 79.629)">
          <path id="Path_341" data-name="Path 341" d="M1893.39,406.381h36.785l8.041-42.6s-19.956.074-26.566.01c-6.463-.061-25.852.184-25.852.184Z" transform="translate(-1885.467 -363.449)" fill="#00043b"/>
          <path id="Path_877" data-name="Path 877" d="M1929.967,406.5h-36.785a.33.33,0,0,1-.325-.273l-7.592-42.407a.33.33,0,0,1,.321-.388c.193,0,19.47-.242,25.859-.184,6.532.064,26.362-.01,26.562-.011h0a.331.331,0,0,1,.325.392l-8.041,42.6A.331.331,0,0,1,1929.967,406.5Zm-36.508-.662h36.233l7.916-41.939c-2.856.011-20.151.066-26.169.01-5.883-.055-22.676.145-25.455.179Z" transform="translate(-1885.26 -363.241)" fill="#00043b"/>
        </g>
        <g id="Group_73" data-name="Group 73" transform="translate(16.628 0)">
          <path id="Path_878" data-name="Path 878" d="M1903.075,320.657a.3.3,0,0,1-.308-.289.936.936,0,0,1,.011-.125,32.665,32.665,0,0,1,1.053-5.867,16.182,16.182,0,0,1,2.613-4.921c.237-.347.484-.7.734-1.062a44.167,44.167,0,0,0,4-6.594,20.65,20.65,0,0,0,1.974-7.546,16.626,16.626,0,0,0-2.378-8.982l-.057-.1v0c-.677-1.24-1.446-2.473-2.189-3.667-2.411-3.867-4.9-7.866-4.678-12.69a24.178,24.178,0,0,1,1.64-7.629,62.117,62.117,0,0,0,2.693-10.332,26.807,26.807,0,0,0,.518-3.664c.438-6.489-2.2-11.027-7.23-12.454-6.379-1.807-14.291,1.9-17.64,8.256-2.749,5.218-3.518,11.774-2.349,20.043.471,3.328,1.153,6.266,1.7,8.628.339,1.461.607,2.615.726,3.447a58.511,58.511,0,0,1,.433,8.53c0,3.527,0,6.857,1.018,10.174.04.135.084.264.129.393a27.757,27.757,0,0,0,4,7.133c1.553,2.209,3.018,4.294,3.625,6.723.834,3.336.31,8.049-.078,10.562l-.013.1a.307.307,0,1,1-.61-.077l.014-.109c.382-2.475.9-7.1.09-10.327-.578-2.319-2.012-4.359-3.53-6.519a28.227,28.227,0,0,1-4.083-7.288c-.047-.134-.094-.272-.136-.414-1.046-3.4-1.045-6.777-1.045-10.352a57.98,57.98,0,0,0-.426-8.443c-.116-.806-.381-1.949-.717-3.4-.551-2.373-1.237-5.326-1.711-8.681-1.188-8.4-.4-15.079,2.415-20.415,3.476-6.6,11.709-10.44,18.351-8.56,5.337,1.512,8.135,6.281,7.675,13.087a27.332,27.332,0,0,1-.528,3.74,62.567,62.567,0,0,1-2.716,10.413,23.414,23.414,0,0,0-1.608,7.459c-.216,4.632,2.116,8.375,4.585,12.337.76,1.219,1.546,2.478,2.239,3.753l.091.092-.011.06a17.092,17.092,0,0,1,2.4,9.216,21.269,21.269,0,0,1-2.032,7.768,44.674,44.674,0,0,1-4.056,6.683c-.25.36-.5.713-.731,1.058a15.677,15.677,0,0,0-2.526,4.73,32.276,32.276,0,0,0-1.041,5.8.314.314,0,0,1-.3.324Z" transform="translate(-1880.345 -233.659)" fill="#00043b"/>
          <path id="Path_879" data-name="Path 879" d="M1896.024,278.9a.307.307,0,0,1-.224-.1c-3.522-3.75-4.772-10.271-4.823-10.547a.308.308,0,0,1,.246-.358.311.311,0,0,1,.358.246c.012.066,1.268,6.621,4.667,10.238a.308.308,0,0,1-.224.518Z" transform="translate(-1884.442 -246.855)" fill="#00043b"/>
          <path id="Path_880" data-name="Path 880" d="M1904.7,334.2a.266.266,0,0,1-.039,0,.307.307,0,0,1-.231-.157L1904.4,334l-.005-.1c-.06-1.1-.133-2.323-.211-3.646l-.009-.155c-.195-3.308.528-7.632,1.228-11.813a75.206,75.206,0,0,0,1.145-8.777c.093-2.46-1.151-5.059-2.435-7.51-.252-.481-.514-.972-.782-1.471-1.92-3.587-4.1-7.652-4.8-12.651a30.216,30.216,0,0,1,2.739-17.231.307.307,0,0,1,.554.267,29.607,29.607,0,0,0-2.685,16.881c.691,4.888,2.84,8.9,4.736,12.445.268.5.531.993.785,1.477,1.321,2.524,2.6,5.207,2.5,7.818a75.77,75.77,0,0,1-1.153,8.855c-.694,4.147-1.411,8.436-1.22,11.675l.008.154c.077,1.284.148,2.475.206,3.548l.021.024-.013.146A.307.307,0,0,1,1904.7,334.2Z" transform="translate(-1887.248 -247.848)" fill="#00043b"/>
          <path id="Path_881" data-name="Path 881" d="M1908.036,316.473a.307.307,0,0,1-.233-.508c2.572-2.994,2.4-8,2.4-8.047a.307.307,0,0,1,.294-.319.3.3,0,0,1,.32.294c.009.215.184,5.293-2.548,8.473A.3.3,0,0,1,1908.036,316.473Z" transform="translate(-1890.901 -262.162)" fill="#00043b"/>
        </g>
        <g id="Group_74" data-name="Group 74" transform="translate(0 24.728)">
          <path id="Path_882" data-name="Path 882" d="M1880.366,333.938a.306.306,0,0,1-.3-.258l-.027-.165c-.457-2.819-1.656-7.775-4.558-9.3l-.783-.412c-3.667-1.932-7.824-4.122-9.5-6.931-.923-1.538-.981-3.859-1.041-6.317a17.172,17.172,0,0,0-.786-5.918,16.733,16.733,0,0,0-2.723-3.447c-3.492-3.834-8.769-9.627-7-17.19,1.238-5.307,4.385-9.114,8.215-9.935,3.24-.7,6.486.846,9.146,4.334a.307.307,0,0,1-.489.373c-2.508-3.289-5.536-4.747-8.529-4.107-3.594.771-6.562,4.4-7.745,9.474-1.692,7.248,3.454,12.9,6.859,16.635a16.539,16.539,0,0,1,2.832,3.618,17.546,17.546,0,0,1,.837,6.146c.059,2.375.114,4.617.955,6.016,1.59,2.662,5.666,4.809,9.262,6.7l.783.413c3.138,1.652,4.4,6.815,4.879,9.747l.027.165a.307.307,0,0,1-.253.353A.283.283,0,0,1,1880.366,333.938Z" transform="translate(-1853.286 -273.9)" fill="#00043b"/>
          <path id="Path_883" data-name="Path 883" d="M1902.594,372.647a.357.357,0,0,1-.057,0,.33.33,0,0,1-.269-.382l.014-.082a.337.337,0,0,1,.382-.27.33.33,0,0,1,.269.382l-.014.083A.331.331,0,0,1,1902.594,372.647Z" transform="translate(-1872.167 -311.68)" fill="#00043b"/>
          <path id="Path_884" data-name="Path 884" d="M1881.794,321.692a.307.307,0,0,1-.212-.085,9.372,9.372,0,0,1-2.745-5.141,5.273,5.273,0,0,0-.52-1.55,6.966,6.966,0,0,0-2-1.819l-.148-.108a12.508,12.508,0,0,1-2.347-2.171,9.811,9.811,0,0,1-1.7-3.409,16.872,16.872,0,0,1-.631-3.151.307.307,0,0,1,.611-.063,16.3,16.3,0,0,0,.611,3.044,9.2,9.2,0,0,0,1.586,3.2,11.863,11.863,0,0,0,2.349,2.143l.054.037a7.581,7.581,0,0,1,2.117,1.953,5.594,5.594,0,0,1,.614,1.757,8.711,8.711,0,0,0,2.572,4.839.308.308,0,0,1-.213.53Z" transform="translate(-1860.304 -285.471)" fill="#00043b"/>
          <path id="Path_885" data-name="Path 885" d="M1868.947,306.569a.327.327,0,0,1-.055,0c-4.224-.756-6.293-4.787-6.38-4.958a.307.307,0,0,1,.549-.276c.02.039,2.023,3.928,5.938,4.629a.307.307,0,0,1-.053.61Z" transform="translate(-1856.83 -284.409)" fill="#00043b"/>
          <path id="Path_886" data-name="Path 886" d="M1879.394,313.147a.331.331,0,0,1-.276-.513c1.9-2.872,1.595-8.351,1.591-8.406a.33.33,0,0,1,.31-.35.342.342,0,0,1,.35.31c.014.233.323,5.752-1.7,8.81A.332.332,0,0,1,1879.394,313.147Z" transform="translate(-1863.223 -285.456)" fill="#00043b"/>
        </g>
        <g id="Group_75" data-name="Group 75" transform="translate(42.649 12.121)">
          <path id="Path_887" data-name="Path 887" d="M1948.516,327.062a.329.329,0,0,1-.331-.329v0a.331.331,0,1,1,.331.332Z" transform="translate(-1932.518 -281.531)" fill="#00043b"/>
          <path id="Path_888" data-name="Path 888" d="M1925.581,368.407a.328.328,0,0,1-.331-.326l.006-.072a12.2,12.2,0,0,0-.478-7.029,36.941,36.941,0,0,0-2.039-3.728.331.331,0,0,1,.561-.35,37.4,37.4,0,0,1,2.079,3.8,12.861,12.861,0,0,1,.527,7.423A.334.334,0,0,1,1925.581,368.407Z" transform="translate(-1922.689 -293.23)" fill="#00043b"/>
          <path id="Path_889" data-name="Path 889" d="M1937.008,360.751a.33.33,0,0,1-.318-.243l-.042-.151c-.63-2.5-.372-5.692.767-9.5.854-2.864,1.773-5.622,2.569-7.981l.458-1.362c.495-1.468.968-2.874,1.4-4.214a.331.331,0,0,1,.63.2c-.429,1.342-.9,2.751-1.4,4.223l-.458,1.361c-.794,2.355-1.712,5.106-2.562,7.96-1.1,3.7-1.361,6.774-.762,9.147l.04.146a.33.33,0,0,1-.319.417Z" transform="translate(-1927.941 -285.643)" fill="#00043b"/>
          <path id="Path_890" data-name="Path 890" d="M1938.251,274.759h0a.306.306,0,0,1-.3-.305v0a28.732,28.732,0,0,1,1.038-7.238,11.976,11.976,0,0,0-.626-9.425,7.171,7.171,0,0,0-4.713-3.487,9.283,9.283,0,0,0-6.692.779.307.307,0,0,1-.287-.543,9.9,9.9,0,0,1,7.123-.832,7.764,7.764,0,0,1,5.1,3.777,12.574,12.574,0,0,1,.683,9.9,28.083,28.083,0,0,0-1.013,7.071A.309.309,0,0,1,1938.251,274.759Z" transform="translate(-1924.158 -253.384)" fill="#00043b"/>
          <path id="Path_891" data-name="Path 891" d="M1931.733,363.809a.37.37,0,0,1-.058,0,.331.331,0,0,1-.268-.383,60.848,60.848,0,0,0-1.013-10.3,42.453,42.453,0,0,1-.082-7.736c.013-.209.022-.417.03-.621l.331-.014.33.042c-.009.208-.018.422-.031.63a39.382,39.382,0,0,0,.07,7.566,61.056,61.056,0,0,1,1.021,10.41.352.352,0,0,1,0,.133A.331.331,0,0,1,1931.733,363.809Z" transform="translate(-1925.579 -288.607)" fill="#00043b"/>
          <path id="Path_892" data-name="Path 892" d="M1928.442,303.608a.308.308,0,0,1-.3-.246,78.536,78.536,0,0,0-2.245-8.588,13.635,13.635,0,0,1-.028-6.8,39.4,39.4,0,0,1,2.143-6.971.307.307,0,1,1,.568.234,38.812,38.812,0,0,0-2.109,6.858,13.063,13.063,0,0,0,.008,6.481,79.167,79.167,0,0,1,2.265,8.66.308.308,0,0,1-.241.362A.338.338,0,0,1,1928.442,303.608Z" transform="translate(-1923.758 -263.96)" fill="#00043b"/>
          <path id="Path_893" data-name="Path 893" d="M1926.406,286.632a.33.33,0,0,1-.127-.635c4.64-1.937,6.884-9.375,6.907-9.45a.33.33,0,0,1,.634.187c-.094.318-2.359,7.816-7.286,9.873A.327.327,0,0,1,1926.406,286.632Z" transform="translate(-1923.994 -262.222)" fill="#00043b"/>
        </g>
        <g id="Group_76" data-name="Group 76" transform="translate(50.554 32.232)">
          <path id="Path_894" data-name="Path 894" d="M1940.065,340.833h-.019a.306.306,0,0,1-.288-.325l.013-.245c.111-1.973.244-3.636.4-4.942a26.044,26.044,0,0,1,.947-3.889,34.657,34.657,0,0,0,1.594-7.657,11.025,11.025,0,0,0-1.125-5.883c-.408-1.075-.878-2.223-1.376-3.438-2.574-6.278-6.1-14.878-4.026-21.814a9.041,9.041,0,0,1,5.252-5.779h0l.2-.08a9.995,9.995,0,0,1,6.138-.34c4.74,1.228,7.927,5.451,8.743,11.585.046.337.083.672.116,1,.977,9.533-2.4,17.328-4.865,23.02-.476,1.1-.925,2.135-1.293,3.072l-.214.571a13.947,13.947,0,0,0-.71,2.455c-.2,1.184-.442,2.386-.678,3.549a35.862,35.862,0,0,0-.993,7.112c0,.106,0,.207,0,.309a.308.308,0,0,1-.295.32.3.3,0,0,1-.32-.3c0-.109,0-.218,0-.329a36.266,36.266,0,0,1,1.005-7.238c.235-1.158.478-2.355.675-3.535a14.6,14.6,0,0,1,.74-2.568l.2-.527c.375-.96.834-2.019,1.319-3.14,2.439-5.629,5.779-13.339,4.818-22.705-.032-.332-.068-.658-.114-.988-.782-5.875-3.8-9.911-8.288-11.074a9.379,9.379,0,0,0-5.6.257l-.17.067a8.42,8.42,0,0,0-5.078,5.457c-2.011,6.73,1.466,15.212,4.006,21.406.5,1.22.971,2.371,1.37,3.425a11.6,11.6,0,0,1,1.175,6.174,35.681,35.681,0,0,1-1.617,7.785,25.559,25.559,0,0,0-.926,3.787c-.151,1.294-.283,2.945-.393,4.906l-.014.246A.308.308,0,0,1,1940.065,340.833Z" transform="translate(-1935.554 -286.11)" fill="#00043b"/>
          <path id="Path_895" data-name="Path 895" d="M1948.3,349.18a.33.33,0,0,1-.33-.317c0-.106,0-.211,0-.321a53.076,53.076,0,0,1,.58-7.984,43.7,43.7,0,0,1,1.721-6.572,52.912,52.912,0,0,0,2.342-9.6l.078-.617a21.724,21.724,0,0,0-.651-7.965,28.188,28.188,0,0,0-2.478-6.39.331.331,0,1,1,.583-.312,28.813,28.813,0,0,1,2.534,6.534,22.371,22.371,0,0,1,.668,8.21l-.079.629a54.106,54.106,0,0,1-2.367,9.715,43.2,43.2,0,0,0-1.7,6.472,52.341,52.341,0,0,0-.573,7.882c0,.1,0,.2,0,.294a.33.33,0,0,1-.316.344Z" transform="translate(-1940.337 -294.905)" fill="#00043b"/>
          <path id="Path_896" data-name="Path 896" d="M1954.912,314.091a.308.308,0,0,1-.221-.521c2.228-2.3,2.755-9.3,2.759-9.369a.307.307,0,1,1,.613.044c-.021.3-.548,7.295-2.931,9.752A.307.307,0,0,1,1954.912,314.091Z" transform="translate(-1942.898 -292.974)" fill="#00043b"/>
          <path id="Path_897" data-name="Path 897" d="M1951.8,329.4a.307.307,0,0,1-.136-.031,8.058,8.058,0,0,1-2.024-1.424l-.094-.1a18.678,18.678,0,0,1-2.5-3.016l-.052-.08a29.942,29.942,0,0,1-1.934-3.274.308.308,0,0,1,.549-.278,29.284,29.284,0,0,0,1.946,3.284l.054.084a18.084,18.084,0,0,0,2.461,2.929l.095.093a7.424,7.424,0,0,0,1.775,1.226.307.307,0,0,1-.136.583Z" transform="translate(-1939.204 -299.574)" fill="#00043b"/>
        </g>
        <g id="Group_77" data-name="Group 77" transform="translate(58.856 9.4)">
          <path id="Path_898" data-name="Path 898" d="M1949.4,373.612h-.031a.332.332,0,0,1-.3-.359l.028-.323a.341.341,0,0,1,.356-.3.331.331,0,0,1,.3.356l-.028.329A.331.331,0,0,1,1949.4,373.612Z" transform="translate(-1949.064 -296.63)" fill="#00043b"/>
          <path id="Path_899" data-name="Path 899" d="M1958.368,323.608a.321.321,0,0,1-.306-.324,1.417,1.417,0,0,1,.031-.2l.015-.072c.441-2.153.857-4.482,1.24-6.927a15.223,15.223,0,0,1,.912-3.215c1.391-3.565,3.95-7.361,6.208-10.709,1.848-2.741,3.445-5.108,3.959-6.7a22.474,22.474,0,0,0,.791-7.246,23.256,23.256,0,0,1,3.843-14.011c2.253-4.267,4.382-8.3,3.379-14.506a11.591,11.591,0,0,0-8.284-9.524c-4.635-1.427-9.72-.3-12.652,2.8-5.7,6.026-3.288,17.1-2.747,19.256l.026.1a.309.309,0,0,1-.224.374.305.305,0,0,1-.372-.222v0l-.023-.086c-.558-2.226-3.026-13.581,2.893-19.841,3.088-3.266,8.425-4.456,13.28-2.962a12.187,12.187,0,0,1,8.709,10.014c1.037,6.412-1.24,10.722-3.441,14.891a22.671,22.671,0,0,0-3.772,13.723,22.95,22.95,0,0,1-.821,7.437c-.541,1.672-2.159,4.072-4.034,6.851-2.24,3.322-4.779,7.087-6.146,10.593a14.6,14.6,0,0,0-.877,3.086c-.384,2.451-.8,4.789-1.243,6.947l-.018.086c-.007.033-.015.065-.019.1A.291.291,0,0,1,1958.368,323.608Z" transform="translate(-1950.65 -248.956)" fill="#00043b"/>
          <path id="Path_900" data-name="Path 900" d="M1969.158,293.978a.3.3,0,0,1-.307-.3v-.087l.037-.068a15.325,15.325,0,0,0,1.78-3.957,17.584,17.584,0,0,0-.187-3.956c-.07-.564-.147-1.131-.224-1.7-.2-1.455-.4-2.959-.457-4.2,0-.046-.009-.1-.009-.156-.094-2.605,1.635-5.665,2.287-6.817.114-.2.195-.34.218-.4a.315.315,0,0,1,.393-.181.3.3,0,0,1,.188.381,3.8,3.8,0,0,1-.264.5c-.628,1.11-2.3,4.059-2.207,6.5,0,.045,0,.084.007.119.055,1.239.258,2.728.453,4.17.077.57.154,1.139.223,1.694a18.139,18.139,0,0,1,.19,4.1,15.285,15.285,0,0,1-1.843,4.176A.31.31,0,0,1,1969.158,293.978Z" transform="translate(-1956.692 -257.89)" fill="#00043b"/>
          <path id="Path_901" data-name="Path 901" d="M1968.429,276.661a.3.3,0,0,1-.192-.068c-3.752-3.009-3.743-12.409-3.74-12.808a.308.308,0,0,1,.307-.306h0a.307.307,0,0,1,.305.309c0,.095-.011,9.5,3.51,12.325a.307.307,0,0,1-.192.547Z" transform="translate(-1955.013 -254.555)" fill="#00043b"/>
          <path id="Path_902" data-name="Path 902" d="M1971.8,286.548a.307.307,0,0,1-.128-.587c5.25-2.4,7.7-11.731,7.728-11.825a.307.307,0,1,1,.6.153c-.1.4-2.55,9.707-8.067,12.231A.3.3,0,0,1,1971.8,286.548Z" transform="translate(-1957.712 -258.573)" fill="#00043b"/>
        </g>
      </g>
      <g id="Window" transform="translate(0 48.616)">
        <path id="Path_903" data-name="Path 903" d="M1913,297.543H1788.358V112.762H1913Zm-124.071-.574h123.5V113.336h-123.5Z" transform="translate(-1779.256 -112.762)" fill="#00043b"/>
        <path id="Path_904" data-name="Path 904" d="M1788.87,257.776l-.085-.568c3.048-.459,8.625-2.784,17.888-11.25,13.448-12.285,26.654-23.807,40.354-29.788a44.492,44.492,0,0,1,18.715-4.153c9.07.139,14.344,3.272,17.926,5.984,1.616,1.225,3.09,2.539,4.516,3.809,4.008,3.572,7.794,6.947,14,7.722a38.182,38.182,0,0,0,10.666-.1l.085.568a38.725,38.725,0,0,1-10.825.1c-6.386-.8-10.237-4.229-14.314-7.863-1.417-1.263-2.883-2.569-4.481-3.78-3.511-2.66-8.685-5.731-17.588-5.867a43.96,43.96,0,0,0-18.477,4.1c-13.62,5.946-26.786,17.435-40.2,29.686C1799.537,253.257,1793.416,257.09,1788.87,257.776Z" transform="translate(-1779.437 -155.048)" fill="#00043b"/>
        <path id="Path_905" data-name="Path 905" d="M1846.9,200.282a58.35,58.35,0,0,1-7.288-5.1c-2.725-2.217-4.778-5.1-6.951-8.159-2.58-3.626-5.246-7.375-9.127-9.874a19.438,19.438,0,0,0-9.7-3c-10.521-.58-19.359,4.371-24.922,8.628l-.349-.456c5.641-4.316,14.618-9.335,25.3-8.745a20.008,20.008,0,0,1,9.987,3.091c3.976,2.559,6.675,6.355,9.287,10.025,2.15,3.022,4.181,5.877,6.847,8.047a57.711,57.711,0,0,0,7.217,5.054Z" transform="translate(-1779.339 -138.649)" fill="#00043b"/>
        <path id="Path_906" data-name="Path 906" d="M1953.83,206.021l-.26-.511c5.659-2.883,8.45-7.036,11.149-11.053,2.957-4.4,5.75-8.557,11.974-10.526l.047-.013c.5-.156,1.013-.294,1.519-.412a33.612,33.612,0,0,1,4.821-.752l.047.572a32.944,32.944,0,0,0-4.738.74c-.506.117-1.017.256-1.52.413l-.046.013c-6,1.914-8.736,5.98-11.628,10.285C1962.456,198.855,1959.622,203.071,1953.83,206.021Z" transform="translate(-1849.644 -142.582)" fill="#00043b"/>
        <path id="Path_907" data-name="Path 907" d="M1932.43,174.13h-.115l-.09-.079c-6.273-5.974-20.175-15.87-42.837-14.986-12.541.486-23.394,2.926-32.256,7.254a46.813,46.813,0,0,0-7.325,4.389l-.339-.463a47.293,47.293,0,0,1,7.413-4.442c8.932-4.362,19.862-6.822,32.484-7.31,22.875-.893,36.917,9.107,43.256,15.144l-.2.2Z" transform="translate(-1805.292 -132.221)" fill="#00043b"/>
        <path id="Path_908" data-name="Path 908" d="M1850.342,158.869a.285.285,0,0,1-.21-.091l-16.231-17.41a.287.287,0,1,1,.419-.391l16.232,17.41a.287.287,0,0,1-.209.483Z" transform="translate(-1798.626 -124.744)" fill="#00043b"/>
        <path id="Path_909" data-name="Path 909" d="M1881.932,148.921a.289.289,0,0,1-.257-.157l-6.892-13.589a.287.287,0,1,1,.511-.259l6.893,13.589a.288.288,0,0,1-.256.417Z" transform="translate(-1816.064 -122.133)" fill="#00043b"/>
        <path id="Path_910" data-name="Path 910" d="M1914.295,143.01a.287.287,0,0,1-.284-.251l-1.266-10.128a.287.287,0,1,1,.569-.071l1.266,10.128a.286.286,0,0,1-.249.32Z" transform="translate(-1832.25 -121.09)" fill="#00043b"/>
        <path id="Path_911" data-name="Path 911" d="M1942.2,145.741a.283.283,0,0,1-.111-.023.287.287,0,0,1-.154-.375l4.361-10.41a.287.287,0,0,1,.529.222l-4.361,10.41A.287.287,0,0,1,1942.2,145.741Z" transform="translate(-1844.676 -122.133)" fill="#00043b"/>
        <path id="Path_912" data-name="Path 912" d="M1971.361,153.08a.287.287,0,0,1-.2-.489l14.911-15.052a.287.287,0,0,1,.408.4l-14.911,15.052A.29.29,0,0,1,1971.361,153.08Z" transform="translate(-1857.102 -123.282)" fill="#00043b"/>
        <rect id="Rectangle_146" data-name="Rectangle 146" width="142.85" height="11.5" transform="translate(0 184.493)" fill="#00043b"/>
      </g>
      <g id="Cup" transform="translate(41.026 181.176)">
        <path id="Path_869" data-name="Path 869" d="M2465.661,214.231h-15.019a.34.34,0,0,1-.337-.3l-4.924-38.081a.337.337,0,0,1,.081-.268.341.341,0,0,1,.256-.116h23.39a.339.339,0,0,1,.339.371L2466,213.921A.34.34,0,0,1,2465.661,214.231Zm-14.72-.68h14.409l3.387-37.4H2446.1Z" transform="translate(-2442.169 -160.776)" fill="#00043b"/>
        <path id="Path_870" data-name="Path 870" d="M2470.3,173.918h0l-29.3-.007a.339.339,0,0,1-.306-.488l2-4.148v0l.194-.394a.338.338,0,0,1,.3-.19l25.17-.218h0a.34.34,0,0,1,.314.212l1.942,4.768a.339.339,0,0,1-.315.468Zm-28.761-.687,28.256.007-1.664-4.086-24.731.214Z" transform="translate(-2440.659 -158.536)" fill="#00043b"/>
        <path id="Path_871" data-name="Path 871" d="M2467.69,168.19h-17.521a.34.34,0,0,1-.31-.479l.917-2.04a.338.338,0,0,1,.31-.2h15.838a.34.34,0,0,1,.318.22l.767,2.04a.341.341,0,0,1-.318.46Zm-16.995-.68h16.5l-.511-1.36h-15.382Z" transform="translate(-2443.593 -157.576)" fill="#00043b"/>
        <path id="Path_872" data-name="Path 872" d="M2467.923,162.342a.345.345,0,0,1-.162-.041.34.34,0,0,1-.138-.46l4.2-7.8a.34.34,0,1,1,.6.322l-4.2,7.8A.338.338,0,0,1,2467.923,162.342Z" transform="translate(-2449.274 -153.862)" fill="#00043b"/>
      </g>
      <g id="Clock" transform="translate(392.413 31.4)">
        <path id="Path_867" data-name="Path 867" d="M2110.8,181.663a26.829,26.829,0,1,1,26.83-26.829A26.86,26.86,0,0,1,2110.8,181.663Zm0-46.9a20.066,20.066,0,1,0,20.065,20.066A20.088,20.088,0,0,0,2110.8,134.768Z" transform="translate(-2083.969 -128.004)" fill="#00043b"/>
        <path id="Path_868" data-name="Path 868" d="M2119.6,179.971a.283.283,0,0,1-.242-.431l7.239-11.922-4.669-9.762a.284.284,0,1,1,.512-.245l4.735,9.9a.284.284,0,0,1-.013.269l-7.318,12.053A.285.285,0,0,1,2119.6,179.971Z" transform="translate(-2099.263 -140.746)" fill="#00043b"/>
      </g>
      <g id="Signs" transform="translate(181.103 48.615)">
        <path id="Path_964" data-name="Path 964" d="M1583.48,186.7c-.023,0-.046,0-.07,0a.655.655,0,0,1-.545-.433c-1.115-3.208-4.219-11.2-8.94-16.067-.462-.477-1.013-1.038-1.638-1.674-6.089-6.2-18.759-19.1-23.948-29.877a31.684,31.684,0,0,1-1.206-23.963,20.369,20.369,0,0,1,10.925-12.036,21.571,21.571,0,0,1,17.367-.339c6.54,2.754,11.82,8.708,14.871,16.765,5.82,15.373.894,38.4-2.561,50.751-2.508,8.973-3.347,13.815-3.609,16.3h0A.651.651,0,0,1,1583.48,186.7Zm-16.21-85.477a22.389,22.389,0,0,0-8.98,1.953,19.805,19.805,0,0,0-10.614,11.708,31.088,31.088,0,0,0,1.185,23.512c5.147,10.7,17.772,23.546,23.839,29.722.625.637,1.178,1.2,1.641,1.676,4.8,4.954,7.943,13.035,9.071,16.28a.073.073,0,0,0,.06.048.074.074,0,0,0,.079-.064c.265-2.5,1.109-7.379,3.627-16.392,3.436-12.286,8.339-35.171,2.577-50.389-2.994-7.908-8.162-13.746-14.555-16.438A20.319,20.319,0,0,0,1567.27,101.224Zm16.568,84.865h0Z" transform="translate(-1545.336 -94.815)" fill="#00043b"/>
        <path id="Path_965" data-name="Path 965" d="M1630.557,144.148a.289.289,0,0,1-.289-.309c.007-.091.642-9.151.462-13.686-.042-1.063-.255-2.808-.525-5.019-.865-7.073-2.311-18.911.142-24.837,3.468-8.375,11.972-10.732,18.4-9.378A16.039,16.039,0,0,1,1659,98.146c2.406,3.965,2.882,8.911,1.376,14.3-1.385,4.954-9.333,11.008-15.719,15.873a77.011,77.011,0,0,0-6.161,4.975,42.965,42.965,0,0,0-7.678,10.7A.288.288,0,0,1,1630.557,144.148Zm14.7-53.009a15.127,15.127,0,0,0-14.379,9.379c-2.4,5.786-.96,17.529-.1,24.546.272,2.223.486,3.98.53,5.066.138,3.5-.2,9.668-.374,12.391a43.52,43.52,0,0,1,7.15-9.636,77.183,77.183,0,0,1,6.219-5.026c5.984-4.559,14.18-10.8,15.512-15.569,1.462-5.232,1.007-10.02-1.314-13.845a15.446,15.446,0,0,0-9.868-6.96A16.406,16.406,0,0,0,1645.26,91.139Z" transform="translate(-1580.62 -90.561)" fill="#00043b"/>
        <path id="Path_966" data-name="Path 966" d="M1621.14,212.55a.289.289,0,0,1-.287-.326c.029-.226,2.948-22.789,10.163-35.928,6.859-12.491,16.752-19.134,25.808-17.344h0c3.148.623,6.05,2.846,8.174,6.263a25.254,25.254,0,0,1,2.634,19.043c-2.585,9.612-8.763,15.895-18.362,18.676a119.156,119.156,0,0,1-12.154,2.809c-1.626.305-3.031.569-4.21.874a40.6,40.6,0,0,0-11.6,5.879A.287.287,0,0,1,1621.14,212.55Zm32.722-53.309c-7.986,0-16.326,6.383-22.339,17.333-6.473,11.785-9.468,31.257-10.006,35.067a40.687,40.687,0,0,1,11.244-5.585c1.2-.31,2.613-.575,4.249-.882a118.665,118.665,0,0,0,12.1-2.8c9.391-2.72,15.435-8.868,17.965-18.271a24.656,24.656,0,0,0-2.567-18.587c-2.038-3.278-4.807-5.409-7.795-6h0A14.675,14.675,0,0,0,1653.862,159.241Z" transform="translate(-1577.187 -119.287)" fill="#00043b"/>
      </g>
      <g id="support_icon" data-name="support icon" transform="translate(235.801 59.308)">
        <path id="Path_924" data-name="Path 924" d="M1594.192,331.818a9.118,9.118,0,0,1-4.845-1.388,8.846,8.846,0,0,1-2.2-1.961,8.415,8.415,0,0,1,.429-11.028,8.781,8.781,0,0,1,.671-.646,9.057,9.057,0,0,1,12.778.895,8.357,8.357,0,0,1,1.626,2.84,8.251,8.251,0,0,1,.443,2.674,8.409,8.409,0,0,1-1.971,5.4,8.9,8.9,0,0,1-1.924,1.718A9.12,9.12,0,0,1,1594.192,331.818Zm-.013-16.572a8.4,8.4,0,0,0-6.11,2.656,7.74,7.74,0,0,0-.395,10.144,8.186,8.186,0,0,0,2.031,1.813,8.48,8.48,0,0,0,9.127-.1,8.222,8.222,0,0,0,1.777-1.588,7.737,7.737,0,0,0,1.814-4.972,7.574,7.574,0,0,0-.407-2.458h0a7.711,7.711,0,0,0-1.5-2.613,8.332,8.332,0,0,0-5.744-2.864Q1594.477,315.246,1594.179,315.246Zm.009,12.105a4.68,4.68,0,0,1-2.164-.53,4.432,4.432,0,0,1-1.5-1.29,3.947,3.947,0,0,1,.085-4.767,4.43,4.43,0,0,1,1.64-1.286,4.622,4.622,0,0,1,1.937-.421h.038a4.6,4.6,0,0,1,3.242,1.351,4.055,4.055,0,0,1,.98,1.613,3.907,3.907,0,0,1-.481,3.371,4.336,4.336,0,0,1-1.175,1.173h0A4.688,4.688,0,0,1,1594.189,327.351Zm0-7.621a3.966,3.966,0,0,0-1.661.36,3.771,3.771,0,0,0-1.39,1.09,3.271,3.271,0,0,0-.071,3.951,3.763,3.763,0,0,0,1.274,1.093,4.008,4.008,0,0,0,4.074-.219,3.671,3.671,0,0,0,.992-.99,3.232,3.232,0,0,0,.4-2.79,3.36,3.36,0,0,0-.816-1.343,3.92,3.92,0,0,0-2.766-1.152Z" transform="translate(-1585.297 -314.572)" fill="#00043b"/>
        <rect id="Rectangle_213" data-name="Rectangle 213" width="0.673" height="4.492" transform="matrix(0.735, -0.678, 0.678, 0.735, 2.278, 3.328)" fill="#00043b"/>
        <rect id="Rectangle_214" data-name="Rectangle 214" width="0.674" height="4.508" transform="matrix(0.814, -0.581, 0.581, 0.814, 4.196, 1.738)" fill="#00043b"/>
        <path id="Path_925" data-name="Path 925" d="M1603.11,322.4l-.41-.534,3.55-2.735.411.534Z" transform="translate(-1590.977 -316.06)" fill="#00043b"/>
        <rect id="Rectangle_215" data-name="Rectangle 215" width="4.467" height="0.674" transform="matrix(0.943, -0.332, 0.332, 0.943, 12.713, 7.232)" fill="#00043b"/>
        <rect id="Rectangle_216" data-name="Rectangle 216" width="0.674" height="4.505" transform="translate(12.148 10.87) rotate(-45)" fill="#00043b"/>
        <rect id="Rectangle_217" data-name="Rectangle 217" width="0.674" height="4.468" transform="translate(11.019 11.895) rotate(-32.757)" fill="#00043b"/>
        <rect id="Rectangle_218" data-name="Rectangle 218" width="4.49" height="0.674" transform="matrix(0.592, -0.806, 0.806, 0.592, 3.956, 15.372)" fill="#00043b"/>
        <rect id="Rectangle_219" data-name="Rectangle 219" width="4.471" height="0.673" transform="matrix(0.756, -0.654, 0.654, 0.756, 1.895, 13.431)" fill="#00043b"/>
      </g>
      <g id="location_icon" data-name="location icon" transform="translate(244.771 101.736)">
        <path id="Path_926" data-name="Path 926" d="M1646.591,375.927a.566.566,0,0,1-.163-.024h0c-1.689-.5-5.684-8.569-6.1-13.135a7.876,7.876,0,0,1,2.134-6.344,7.129,7.129,0,0,1,5.818-1.986,6.2,6.2,0,0,1,4.563,2.414c1.418,1.9,1.837,4.755,1.18,8.033-.953,4.751-5.208,9.855-6.826,10.83A1.2,1.2,0,0,1,1646.591,375.927Zm.915-20.85a6.351,6.351,0,0,0-4.573,1.824,7.2,7.2,0,0,0-1.939,5.805c.443,4.809,4.545,12.159,5.607,12.545.833-.092,5.755-5.518,6.755-10.5.619-3.088.243-5.751-1.06-7.5a5.47,5.47,0,0,0-4.084-2.146C1647.974,355.088,1647.739,355.077,1647.506,355.077Z" transform="translate(-1640.284 -354.404)" fill="#00043b"/>
        <path id="Path_927" data-name="Path 927" d="M1649.123,366.9a2.712,2.712,0,1,1,2.713-2.712A2.716,2.716,0,0,1,1649.123,366.9Zm0-4.751a2.039,2.039,0,1,0,2.039,2.039A2.041,2.041,0,0,0,1649.123,362.147Z" transform="translate(-1642.283 -356.711)" fill="#00043b"/>
      </g>
      <g id="code_icon" data-name="code icon" transform="translate(195.975 74.399)">
        <g id="Group_50" data-name="Group 50" transform="translate(4.227 7.314)">
          <path id="Path_1102" data-name="Path 1102" d="M1588.861,356.974a.385.385,0,0,1-.293-.134l-2.713-3.158a.387.387,0,0,1-.015-.487l2.418-3.158a.386.386,0,0,1,.614.469l-2.228,2.909,2.51,2.92a.386.386,0,0,1-.293.638Z" transform="translate(-1585.762 -349.885)" fill="#00043b"/>
        </g>
        <g id="Group_51" data-name="Group 51" transform="translate(13.05 7.314)">
          <path id="Path_1103" data-name="Path 1103" d="M1597.572,356.974a.381.381,0,0,1-.258-.1.386.386,0,0,1-.03-.545l2.622-2.913-2.341-2.9a.386.386,0,0,1,.6-.486l2.549,3.158a.387.387,0,0,1-.013.5l-2.841,3.157A.385.385,0,0,1,1597.572,356.974Z" transform="translate(-1597.185 -349.885)" fill="#00043b"/>
        </g>
        <path id="Path_1104" data-name="Path 1104" d="M1591.282,358.3a.4.4,0,0,1-.124-.02.386.386,0,0,1-.242-.489c1.3-3.853,3.244-9.718,3.363-10.279a.388.388,0,0,1,.213-.327.382.382,0,0,1,.518.171c.1.189.138.276-3.363,10.681A.386.386,0,0,1,1591.282,358.3Z" transform="translate(-1582.704 -341.946)" fill="#00043b"/>
        <path id="Path_1105" data-name="Path 1105" d="M1590.949,361.735a10.66,10.66,0,1,1,10.66-10.66A10.672,10.672,0,0,1,1590.949,361.735Zm0-20.658a10,10,0,1,0,10,10A10.009,10.009,0,0,0,1590.949,341.077Z" transform="translate(-1580.289 -340.415)" fill="#00043b"/>
      </g>
    </g>
  </g>
</svg>
